<svg width="162" height="24" viewBox="0 0 162 24" fill="none" xmlns="http://www.w3.org/2000/svg">
<path d="M56.0236 18.3059C54.7362 18.3059 53.5443 17.9936 52.448 17.369C51.3645 16.7444 50.504 15.8839 49.8666 14.7877C49.242 13.6914 48.9297 12.4804 48.9297 11.1546C48.9297 9.82891 49.242 8.61791 49.8666 7.52163C50.504 6.42536 51.3645 5.56491 52.448 4.94028C53.5443 4.31566 54.7362 4.00335 56.0236 4.00335C57.0307 4.00335 57.974 4.18181 58.8536 4.53874C59.7459 4.89567 60.4789 5.39919 61.0525 6.04931L59.8861 7.2157C59.4527 6.6803 58.8918 6.27239 58.2034 5.99194C57.5278 5.69875 56.8012 5.55216 56.0236 5.55216C55.0676 5.55216 54.1689 5.78799 53.3276 6.25964C52.499 6.71855 51.8297 7.37504 51.3198 8.22911C50.8227 9.07044 50.5741 10.0456 50.5741 11.1546C50.5741 12.2637 50.8227 13.2452 51.3198 14.0993C51.8297 14.9406 52.499 15.5971 53.3276 16.0688C54.1689 16.5277 55.0676 16.7571 56.0236 16.7571C56.9415 16.7571 57.7063 16.6169 58.3182 16.3365C58.9428 16.0433 59.4846 15.6609 59.9435 15.1892C60.2749 14.8323 60.5426 14.3989 60.7466 13.889C60.9505 13.3791 61.0716 12.8246 61.1099 12.2254H56.0619V10.7149H62.6395C62.7033 11.0718 62.7351 11.4032 62.7351 11.7092C62.7351 12.5505 62.6013 13.3727 62.3336 14.1758C62.0659 14.9661 61.6389 15.6609 61.0525 16.26C59.765 17.624 58.0887 18.3059 56.0236 18.3059ZM65.0975 4.30929H69.2468C70.649 4.30929 71.8727 4.60248 72.918 5.18886C73.9633 5.76249 74.7664 6.56558 75.3273 7.59812C75.8882 8.63066 76.1686 9.81617 76.1686 11.1546C76.1686 12.4931 75.8882 13.6786 75.3273 14.7112C74.7664 15.7437 73.9633 16.5532 72.918 17.1396C71.8727 17.7132 70.649 18 69.2468 18H65.0975V4.30929ZM69.2468 16.4512C70.8657 16.4512 72.1468 15.9859 73.0901 15.0553C74.0334 14.1248 74.5051 12.8246 74.5051 11.1546C74.5051 9.48473 74.0334 8.1845 73.0901 7.25394C72.1468 6.32338 70.8657 5.8581 69.2468 5.8581H66.7228V16.4512H69.2468ZM84.9294 18.3059C83.6419 18.3059 82.45 17.9936 81.3537 17.369C80.2702 16.7444 79.4097 15.8839 78.7724 14.7877C78.1478 13.6914 77.8354 12.4804 77.8354 11.1546C77.8354 9.82891 78.1478 8.61791 78.7724 7.52163C79.4097 6.42536 80.2702 5.56491 81.3537 4.94028C82.45 4.31566 83.6419 4.00335 84.9294 4.00335C85.9364 4.00335 86.8797 4.18181 87.7593 4.53874C88.6516 4.89567 89.3846 5.39919 89.9582 6.04931L88.7918 7.2157C88.3584 6.6803 87.7975 6.27239 87.1092 5.99194C86.4336 5.69875 85.707 5.55216 84.9294 5.55216C83.9733 5.55216 83.0746 5.78799 82.2333 6.25964C81.4047 6.71855 80.7355 7.37504 80.2256 8.22911C79.7284 9.07044 79.4799 10.0456 79.4799 11.1546C79.4799 12.2637 79.7284 13.2452 80.2256 14.0993C80.7355 14.9406 81.4047 15.5971 82.2333 16.0688C83.0746 16.5277 83.9733 16.7571 84.9294 16.7571C85.8472 16.7571 86.612 16.6169 87.2239 16.3365C87.8485 16.0433 88.3903 15.6609 88.8492 15.1892C89.1806 14.8323 89.4483 14.3989 89.6523 13.889C89.8562 13.3791 89.9773 12.8246 90.0156 12.2254H84.9676V10.7149H91.5453C91.609 11.0718 91.6409 11.4032 91.6409 11.7092C91.6409 12.5505 91.507 13.3727 91.2393 14.1758C90.9716 14.9661 90.5446 15.6609 89.9582 16.26C88.6707 17.624 86.9945 18.3059 84.9294 18.3059ZM98.4474 4.30929H100.073V18H98.4474V4.30929ZM107.705 18.3059C106.953 18.3059 106.284 18.1466 105.697 17.8279C105.124 17.4965 104.69 17.0822 104.397 16.585H104.321V18H102.772V4.30929H104.397V8.61154L104.321 9.91177H104.397C104.703 9.42737 105.143 9.02583 105.717 8.70714C106.29 8.37571 106.953 8.20999 107.705 8.20999C108.521 8.20999 109.273 8.43307 109.961 8.87923C110.65 9.31264 111.198 9.91177 111.606 10.6766C112.014 11.4415 112.218 12.3019 112.218 13.258C112.218 14.214 112.014 15.0745 111.606 15.8393C111.198 16.6042 110.65 17.2097 109.961 17.6558C109.273 18.0892 108.521 18.3059 107.705 18.3059ZM107.457 16.8336C108.017 16.8336 108.534 16.687 109.005 16.3938C109.49 16.1006 109.872 15.6863 110.153 15.151C110.446 14.6028 110.592 13.9718 110.592 13.258C110.592 12.5441 110.446 11.9195 110.153 11.3841C109.872 10.836 109.49 10.4153 109.005 10.1221C108.534 9.82891 108.017 9.68232 107.457 9.68232C106.896 9.68232 106.373 9.82891 105.889 10.1221C105.417 10.4025 105.035 10.8168 104.741 11.365C104.461 11.9004 104.321 12.5314 104.321 13.258C104.321 13.9718 104.461 14.6028 104.741 15.151C105.035 15.6991 105.417 16.1198 105.889 16.4129C106.373 16.6934 106.896 16.8336 107.457 16.8336ZM117.129 18.3059C116.441 18.3059 115.816 18.1721 115.255 17.9044C114.707 17.624 114.273 17.2415 113.955 16.7571C113.649 16.26 113.496 15.7055 113.496 15.0936C113.496 14.0865 113.872 13.3026 114.624 12.7417C115.389 12.1808 116.364 11.9004 117.55 11.9004C118.136 11.9004 118.665 11.9641 119.137 12.0916C119.608 12.2191 119.984 12.3593 120.265 12.5122V12.0151C120.265 11.5562 120.144 11.1483 119.901 10.7913C119.672 10.4217 119.36 10.1412 118.964 9.95001C118.569 9.74606 118.142 9.64408 117.683 9.64408C116.6 9.64408 115.771 10.0839 115.198 10.9634L113.84 10.0647C114.235 9.47836 114.758 9.02583 115.408 8.70714C116.058 8.37571 116.791 8.20999 117.607 8.20999C118.907 8.20999 119.933 8.56055 120.685 9.26165C121.437 9.96276 121.814 10.9061 121.814 12.0916V18H120.265V16.6042H120.188C119.882 17.0886 119.468 17.4965 118.945 17.8279C118.423 18.1466 117.817 18.3059 117.129 18.3059ZM117.263 16.8719C117.773 16.8719 118.257 16.738 118.716 16.4703C119.175 16.2026 119.545 15.8393 119.825 15.3804C120.118 14.9215 120.265 14.4244 120.265 13.889C119.551 13.4301 118.729 13.2006 117.798 13.2006C116.995 13.2006 116.351 13.3854 115.867 13.7551C115.395 14.112 115.159 14.5709 115.159 15.1318C115.159 15.6417 115.37 16.0624 115.79 16.3938C116.211 16.7125 116.702 16.8719 117.263 16.8719ZM127.924 18.3059C127.108 18.3059 126.356 18.0892 125.668 17.6558C124.98 17.2224 124.431 16.6233 124.024 15.8584C123.616 15.0808 123.412 14.214 123.412 13.258C123.412 12.3019 123.616 11.4415 124.024 10.6766C124.431 9.89902 124.98 9.29352 125.668 8.86011C126.356 8.4267 127.108 8.20999 127.924 8.20999C128.664 8.20999 129.326 8.37571 129.913 8.70714C130.499 9.02583 130.939 9.42737 131.232 9.91177H131.309L131.232 8.61154V4.30929H132.838V18H131.309V16.585H131.232C130.939 17.0822 130.499 17.4965 129.913 17.8279C129.326 18.1466 128.664 18.3059 127.924 18.3059ZM128.173 16.8336C128.734 16.8336 129.25 16.6934 129.722 16.4129C130.206 16.1198 130.588 15.6991 130.869 15.151C131.162 14.6028 131.309 13.9718 131.309 13.258C131.309 12.5314 131.162 11.9004 130.869 11.365C130.588 10.8168 130.206 10.4025 129.722 10.1221C129.25 9.82891 128.734 9.68232 128.173 9.68232C127.612 9.68232 127.089 9.82891 126.605 10.1221C126.133 10.4153 125.751 10.836 125.458 11.3841C125.177 11.9195 125.037 12.5441 125.037 13.258C125.037 13.9718 125.177 14.6028 125.458 15.151C125.751 15.6863 126.133 16.1006 126.605 16.3938C127.089 16.687 127.612 16.8336 128.173 16.8336ZM138.211 18.3059C137.522 18.3059 136.898 18.1721 136.337 17.9044C135.789 17.624 135.355 17.2415 135.037 16.7571C134.731 16.26 134.578 15.7055 134.578 15.0936C134.578 14.0865 134.954 13.3026 135.706 12.7417C136.471 12.1808 137.446 11.9004 138.631 11.9004C139.218 11.9004 139.747 11.9641 140.218 12.0916C140.69 12.2191 141.066 12.3593 141.347 12.5122V12.0151C141.347 11.5562 141.225 11.1483 140.983 10.7913C140.754 10.4217 140.441 10.1412 140.046 9.95001C139.651 9.74606 139.224 9.64408 138.765 9.64408C137.682 9.64408 136.853 10.0839 136.279 10.9634L134.922 10.0647C135.317 9.47836 135.84 9.02583 136.49 8.70714C137.14 8.37571 137.873 8.20999 138.689 8.20999C139.989 8.20999 141.015 8.56055 141.767 9.26165C142.519 9.96276 142.895 10.9061 142.895 12.0916V18H141.347V16.6042H141.27C140.964 17.0886 140.55 17.4965 140.027 17.8279C139.505 18.1466 138.899 18.3059 138.211 18.3059ZM138.344 16.8719C138.854 16.8719 139.339 16.738 139.798 16.4703C140.257 16.2026 140.626 15.8393 140.907 15.3804C141.2 14.9215 141.347 14.4244 141.347 13.889C140.633 13.4301 139.81 13.2006 138.88 13.2006C138.077 13.2006 137.433 13.3854 136.949 13.7551C136.477 14.112 136.241 14.5709 136.241 15.1318C136.241 15.6417 136.451 16.0624 136.872 16.3938C137.293 16.7125 137.784 16.8719 138.344 16.8719ZM145.122 8.51593H146.671V9.93089H146.747C147.015 9.44649 147.436 9.03857 148.009 8.70714C148.583 8.37571 149.195 8.20999 149.845 8.20999C151.005 8.20999 151.885 8.5478 152.484 9.22341C153.096 9.89902 153.402 10.8232 153.402 11.996V18H151.795V12.2445C151.795 10.5364 150.999 9.68232 149.405 9.68232C148.895 9.68232 148.436 9.82891 148.029 10.1221C147.621 10.4153 147.302 10.7977 147.073 11.2694C146.856 11.741 146.747 12.2382 146.747 12.7608V18H145.122V8.51593Z" fill="#F1F1F1"/>
<path d="M9.52326 12.4809L16.0152 8.94276C16.3788 8.74475 16.6974 8.4811 16.953 8.16689C17.2086 7.85267 17.3961 7.49403 17.5048 7.11145C17.6135 6.72887 17.6413 6.32985 17.5865 5.93715C17.5317 5.54445 17.3955 5.16577 17.1856 4.82273C16.9758 4.4797 16.6963 4.17902 16.3633 3.93787C16.0303 3.69673 15.6502 3.51984 15.2447 3.41729C14.8392 3.31475 14.4162 3.28856 14 3.34022C13.5838 3.39189 13.1824 3.5204 12.8189 3.71841L1.59546 9.84351L9.52326 12.4809Z" fill="#EA4335"/>
<path d="M14.4183 21.5749C15.1222 21.5755 15.8067 21.3568 16.3654 20.9528C16.9242 20.5488 17.3259 19.982 17.5083 19.3405C17.6907 18.699 17.6435 18.0187 17.3741 17.4051C17.1047 16.7915 16.6281 16.2789 16.0184 15.947L4.79495 9.82193C4.43137 9.62392 4.03001 9.49541 3.61379 9.44374C3.19757 9.39208 2.77463 9.41825 2.36914 9.5208C1.96365 9.62334 1.58353 9.80024 1.2505 10.0414C0.917462 10.2825 0.638039 10.5832 0.428166 10.9263C0.218292 11.2693 0.082076 11.648 0.0273142 12.0407C-0.0274475 12.4334 0.000310129 12.8324 0.108997 13.215C0.217684 13.5976 0.405179 13.9562 0.660768 14.2704C0.916357 14.5846 1.23504 14.8483 1.59862 15.0463L12.822 21.1714C13.3066 21.4373 13.8576 21.5766 14.4183 21.5749Z" fill="#4285F4"/>
<path d="M25.5845 21.5748C26.1455 21.5754 26.6965 21.4349 27.1807 21.1677L38.4041 15.0426L30.5794 12.3403L23.9844 15.9433C23.3727 16.2744 22.8943 16.7871 22.6236 17.4014C22.3529 18.0158 22.3051 18.6973 22.4877 19.34C22.6703 19.9826 23.073 20.5503 23.6331 20.9545C24.1932 21.3587 24.8793 21.5768 25.5845 21.5748Z" fill="#FBBC04"/>
<path d="M36.8043 15.4496C37.5078 15.4486 38.1914 15.2289 38.7493 14.8244C39.3072 14.4199 39.7083 13.8533 39.8905 13.2121C40.0726 12.5709 40.0258 11.891 39.7571 11.2774C39.4885 10.6639 39.013 10.151 38.4043 9.81812L27.1809 3.69302C26.8173 3.49501 26.416 3.3665 25.9998 3.31483C25.5835 3.26317 25.1606 3.28936 24.7551 3.3919C24.3496 3.49445 23.9695 3.67133 23.6365 3.91248C23.3035 4.15363 23.024 4.45431 22.8141 4.79734C22.6043 5.14038 22.4681 5.51906 22.4133 5.91176C22.3585 6.30446 22.3863 6.70349 22.495 7.08607C22.6037 7.46865 22.7912 7.82728 23.0467 8.14149C23.3023 8.45571 23.621 8.71935 23.9846 8.91737L35.208 15.0425C35.693 15.3079 36.2435 15.4483 36.8043 15.4496Z" fill="#0F9D58"/>
</svg>
