<svg width="161" height="25" viewBox="0 0 161 25" fill="none" xmlns="http://www.w3.org/2000/svg">
<path d="M55.7573 18.8059C54.4698 18.8059 53.2779 18.4936 52.1816 17.869C51.0981 17.2444 50.2377 16.3839 49.6003 15.2877C48.9757 14.1914 48.6634 12.9804 48.6634 11.6546C48.6634 10.3289 48.9757 9.11791 49.6003 8.02163C50.2377 6.92536 51.0981 6.06491 52.1816 5.44028C53.2779 4.81566 54.4698 4.50335 55.7573 4.50335C56.7643 4.50335 57.7076 4.68181 58.5872 5.03874C59.4795 5.39567 60.2125 5.89919 60.7861 6.54931L59.6197 7.7157C59.1863 7.1803 58.6254 6.77239 57.9371 6.49194C57.2615 6.19875 56.5349 6.05216 55.7573 6.05216C54.8012 6.05216 53.9025 6.28799 53.0612 6.75964C52.2326 7.21855 51.5634 7.87504 51.0535 8.72911C50.5563 9.57044 50.3078 10.5456 50.3078 11.6546C50.3078 12.7637 50.5563 13.7452 51.0535 14.5993C51.5634 15.4406 52.2326 16.0971 53.0612 16.5688C53.9025 17.0277 54.8012 17.2571 55.7573 17.2571C56.6751 17.2571 57.4399 17.1169 58.0518 16.8365C58.6764 16.5433 59.2182 16.1609 59.6771 15.6892C60.0085 15.3323 60.2762 14.8989 60.4802 14.389C60.6842 13.8791 60.8053 13.3246 60.8435 12.7254H55.7955V11.2149H62.3732C62.4369 11.5718 62.4688 11.9032 62.4688 12.2092C62.4688 13.0505 62.3349 13.8727 62.0672 14.6758C61.7996 15.4661 61.3725 16.1609 60.7861 16.76C59.4986 18.124 57.8224 18.8059 55.7573 18.8059ZM64.8311 4.80929H68.9804C70.3826 4.80929 71.6064 5.10248 72.6517 5.68886C73.697 6.26249 74.5 7.06558 75.0609 8.09812C75.6218 9.13066 75.9023 10.3162 75.9023 11.6546C75.9023 12.9931 75.6218 14.1786 75.0609 15.2112C74.5 16.2437 73.697 17.0532 72.6517 17.6396C71.6064 18.2132 70.3826 18.5 68.9804 18.5H64.8311V4.80929ZM68.9804 16.9512C70.5993 16.9512 71.8805 16.4859 72.8238 15.5553C73.7671 14.6248 74.2387 13.3246 74.2387 11.6546C74.2387 9.98473 73.7671 8.6845 72.8238 7.75394C71.8805 6.82338 70.5993 6.3581 68.9804 6.3581H66.4564V16.9512H68.9804ZM84.663 18.8059C83.3755 18.8059 82.1836 18.4936 81.0874 17.869C80.0038 17.2444 79.1434 16.3839 78.506 15.2877C77.8814 14.1914 77.5691 12.9804 77.5691 11.6546C77.5691 10.3289 77.8814 9.11791 78.506 8.02163C79.1434 6.92536 80.0038 6.06491 81.0874 5.44028C82.1836 4.81566 83.3755 4.50335 84.663 4.50335C85.6701 4.50335 86.6134 4.68181 87.4929 5.03874C88.3853 5.39567 89.1182 5.89919 89.6919 6.54931L88.5255 7.7157C88.0921 7.1803 87.5312 6.77239 86.8428 6.49194C86.1672 6.19875 85.4406 6.05216 84.663 6.05216C83.707 6.05216 82.8083 6.28799 81.9669 6.75964C81.1384 7.21855 80.4691 7.87504 79.9592 8.72911C79.4621 9.57044 79.2135 10.5456 79.2135 11.6546C79.2135 12.7637 79.4621 13.7452 79.9592 14.5993C80.4691 15.4406 81.1384 16.0971 81.9669 16.5688C82.8083 17.0277 83.707 17.2571 84.663 17.2571C85.5808 17.2571 86.3457 17.1169 86.9575 16.8365C87.5822 16.5433 88.1239 16.1609 88.5828 15.6892C88.9143 15.3323 89.182 14.8989 89.3859 14.389C89.5899 13.8791 89.711 13.3246 89.7492 12.7254H84.7013V11.2149H91.2789C91.3427 11.5718 91.3745 11.9032 91.3745 12.2092C91.3745 13.0505 91.2407 13.8727 90.973 14.6758C90.7053 15.4661 90.2782 16.1609 89.6919 16.76C88.4044 18.124 86.7281 18.8059 84.663 18.8059ZM98.181 4.80929H99.8063V18.5H98.181V4.80929ZM107.439 18.8059C106.687 18.8059 106.017 18.6466 105.431 18.3279C104.857 17.9965 104.424 17.5822 104.131 17.085H104.054V18.5H102.506V4.80929H104.131V9.11154L104.054 10.4118H104.131C104.437 9.92737 104.877 9.52583 105.45 9.20714C106.024 8.87571 106.687 8.70999 107.439 8.70999C108.255 8.70999 109.007 8.93307 109.695 9.37923C110.383 9.81264 110.932 10.4118 111.34 11.1766C111.747 11.9415 111.951 12.8019 111.951 13.758C111.951 14.714 111.747 15.5745 111.34 16.3393C110.932 17.1042 110.383 17.7097 109.695 18.1558C109.007 18.5892 108.255 18.8059 107.439 18.8059ZM107.19 17.3336C107.751 17.3336 108.267 17.187 108.739 16.8938C109.223 16.6006 109.606 16.1863 109.886 15.651C110.179 15.1028 110.326 14.4718 110.326 13.758C110.326 13.0441 110.179 12.4195 109.886 11.8841C109.606 11.336 109.223 10.9153 108.739 10.6221C108.267 10.3289 107.751 10.1823 107.19 10.1823C106.629 10.1823 106.107 10.3289 105.622 10.6221C105.151 10.9025 104.768 11.3168 104.475 11.865C104.195 12.4004 104.054 13.0314 104.054 13.758C104.054 14.4718 104.195 15.1028 104.475 15.651C104.768 16.1991 105.151 16.6198 105.622 16.9129C106.107 17.1934 106.629 17.3336 107.19 17.3336ZM116.863 18.8059C116.174 18.8059 115.55 18.6721 114.989 18.4044C114.441 18.124 114.007 17.7415 113.688 17.2571C113.382 16.76 113.229 16.2055 113.229 15.5936C113.229 14.5865 113.606 13.8026 114.358 13.2417C115.122 12.6808 116.098 12.4004 117.283 12.4004C117.87 12.4004 118.399 12.4641 118.87 12.5916C119.342 12.7191 119.718 12.8593 119.998 13.0122V12.5151C119.998 12.0562 119.877 11.6483 119.635 11.2913C119.406 10.9217 119.093 10.6412 118.698 10.45C118.303 10.2461 117.876 10.1441 117.417 10.1441C116.333 10.1441 115.505 10.5839 114.931 11.4634L113.574 10.5647C113.969 9.97836 114.491 9.52583 115.142 9.20714C115.792 8.87571 116.525 8.70999 117.341 8.70999C118.641 8.70999 119.667 9.06055 120.419 9.76165C121.171 10.4628 121.547 11.4061 121.547 12.5916V18.5H119.998V17.1042H119.922C119.616 17.5886 119.202 17.9965 118.679 18.3279C118.156 18.6466 117.551 18.8059 116.863 18.8059ZM116.996 17.3719C117.506 17.3719 117.991 17.238 118.45 16.9703C118.908 16.7026 119.278 16.3393 119.559 15.8804C119.852 15.4215 119.998 14.9244 119.998 14.389C119.285 13.9301 118.462 13.7006 117.532 13.7006C116.729 13.7006 116.085 13.8854 115.601 14.2551C115.129 14.612 114.893 15.0709 114.893 15.6318C114.893 16.1417 115.103 16.5624 115.524 16.8938C115.945 17.2125 116.435 17.3719 116.996 17.3719ZM127.658 18.8059C126.842 18.8059 126.09 18.5892 125.402 18.1558C124.713 17.7224 124.165 17.1233 123.757 16.3584C123.349 15.5808 123.145 14.714 123.145 13.758C123.145 12.8019 123.349 11.9415 123.757 11.1766C124.165 10.399 124.713 9.79352 125.402 9.36011C126.09 8.9267 126.842 8.70999 127.658 8.70999C128.397 8.70999 129.06 8.87571 129.646 9.20714C130.233 9.52583 130.673 9.92737 130.966 10.4118H131.042L130.966 9.11154V4.80929H132.572V18.5H131.042V17.085H130.966C130.673 17.5822 130.233 17.9965 129.646 18.3279C129.06 18.6466 128.397 18.8059 127.658 18.8059ZM127.906 17.3336C128.467 17.3336 128.984 17.1934 129.455 16.9129C129.94 16.6198 130.322 16.1991 130.603 15.651C130.896 15.1028 131.042 14.4718 131.042 13.758C131.042 13.0314 130.896 12.4004 130.603 11.865C130.322 11.3168 129.94 10.9025 129.455 10.6221C128.984 10.3289 128.467 10.1823 127.906 10.1823C127.346 10.1823 126.823 10.3289 126.339 10.6221C125.867 10.9153 125.484 11.336 125.191 11.8841C124.911 12.4195 124.771 13.0441 124.771 13.758C124.771 14.4718 124.911 15.1028 125.191 15.651C125.484 16.1863 125.867 16.6006 126.339 16.8938C126.823 17.187 127.346 17.3336 127.906 17.3336ZM137.944 18.8059C137.256 18.8059 136.631 18.6721 136.07 18.4044C135.522 18.124 135.089 17.7415 134.77 17.2571C134.464 16.76 134.311 16.2055 134.311 15.5936C134.311 14.5865 134.687 13.8026 135.439 13.2417C136.204 12.6808 137.179 12.4004 138.365 12.4004C138.951 12.4004 139.48 12.4641 139.952 12.5916C140.424 12.7191 140.8 12.8593 141.08 13.0122V12.5151C141.08 12.0562 140.959 11.6483 140.717 11.2913C140.487 10.9217 140.175 10.6412 139.78 10.45C139.385 10.2461 138.958 10.1441 138.499 10.1441C137.415 10.1441 136.587 10.5839 136.013 11.4634L134.655 10.5647C135.051 9.97836 135.573 9.52583 136.223 9.20714C136.874 8.87571 137.606 8.70999 138.422 8.70999C139.723 8.70999 140.749 9.06055 141.501 9.76165C142.253 10.4628 142.629 11.4061 142.629 12.5916V18.5H141.08V17.1042H141.004C140.698 17.5886 140.283 17.9965 139.761 18.3279C139.238 18.6466 138.633 18.8059 137.944 18.8059ZM138.078 17.3719C138.588 17.3719 139.072 17.238 139.531 16.9703C139.99 16.7026 140.36 16.3393 140.64 15.8804C140.934 15.4215 141.08 14.9244 141.08 14.389C140.366 13.9301 139.544 13.7006 138.614 13.7006C137.81 13.7006 137.167 13.8854 136.682 14.2551C136.211 14.612 135.975 15.0709 135.975 15.6318C135.975 16.1417 136.185 16.5624 136.606 16.8938C137.026 17.2125 137.517 17.3719 138.078 17.3719ZM144.856 9.01593H146.405V10.4309H146.481C146.749 9.94649 147.169 9.53857 147.743 9.20714C148.317 8.87571 148.929 8.70999 149.579 8.70999C150.739 8.70999 151.618 9.0478 152.217 9.72341C152.829 10.399 153.135 11.3232 153.135 12.496V18.5H151.529V12.7445C151.529 11.0364 150.732 10.1823 149.139 10.1823C148.629 10.1823 148.17 10.3289 147.762 10.6221C147.354 10.9153 147.036 11.2977 146.806 11.7694C146.589 12.241 146.481 12.7382 146.481 13.2608V18.5H144.856V9.01593Z" fill="#6A7C88"/>
<path d="M9.54466 12.9809L15.9881 9.44276C16.349 9.24475 16.6653 8.9811 16.919 8.66689C17.1727 8.35267 17.3588 7.99403 17.4666 7.61145C17.5745 7.22887 17.6021 6.82985 17.5477 6.43715C17.4934 6.04445 17.3582 5.66577 17.1499 5.32273C16.9416 4.9797 16.6642 4.67902 16.3337 4.43787C16.0031 4.19673 15.6258 4.01984 15.2234 3.91729C14.8209 3.81475 14.4011 3.78856 13.988 3.84022C13.5749 3.89189 13.1765 4.0204 12.8157 4.21841L1.67603 10.3435L9.54466 12.9809Z" fill="#EA4335"/>
<path d="M14.4032 22.0748C15.1019 22.0754 15.7813 21.8567 16.3358 21.4527C16.8904 21.0487 17.2891 20.482 17.4702 19.8405C17.6512 19.199 17.6044 18.5186 17.337 17.905C17.0696 17.2914 16.5965 16.7789 15.9913 16.447L4.85169 10.3219C4.49083 10.1239 4.09246 9.99535 3.67935 9.94368C3.26624 9.89201 2.84646 9.91819 2.44399 10.0207C2.04152 10.1233 1.66424 10.3002 1.33369 10.5413C1.00314 10.7825 0.725807 11.0832 0.5175 11.4262C0.309192 11.7692 0.173993 12.1479 0.11964 12.5406C0.0652866 12.9333 0.0928371 13.3323 0.200713 13.7149C0.308589 14.0975 0.494684 14.4561 0.748366 14.7703C1.00205 15.0846 1.31836 15.3482 1.67922 15.5462L12.8189 21.6713C13.2999 21.9373 13.8468 22.0766 14.4032 22.0748Z" fill="#4285F4"/>
<path d="M25.4861 22.0748C26.0429 22.0754 26.5898 21.9348 27.0704 21.6676L38.2101 15.5425L30.4438 12.8403L23.898 16.4433C23.2909 16.7744 22.816 17.287 22.5473 17.9014C22.2786 18.5157 22.2312 19.1973 22.4124 19.8399C22.5936 20.4826 22.9933 21.0502 23.5493 21.4544C24.1052 21.8586 24.7862 22.0767 25.4861 22.0748Z" fill="#FBBC04"/>
<path d="M36.6222 15.9496C37.3205 15.9486 37.999 15.7289 38.5528 15.3244C39.1065 14.9199 39.5045 14.3533 39.6854 13.7121C39.8662 13.0709 39.8197 12.391 39.553 11.7774C39.2864 11.1639 38.8145 10.651 38.2103 10.3181L27.0707 4.19302C26.7098 3.99501 26.3114 3.8665 25.8983 3.81483C25.4852 3.76317 25.0654 3.78936 24.663 3.8919C24.2605 3.99445 23.8832 4.17133 23.5527 4.41248C23.2221 4.65363 22.9448 4.95431 22.7365 5.29734C22.5282 5.64038 22.393 6.01906 22.3386 6.41176C22.2843 6.80446 22.3118 7.20349 22.4197 7.58607C22.5276 7.96865 22.7137 8.32728 22.9674 8.64149C23.221 8.95571 23.5373 9.21935 23.8982 9.41737L35.0379 15.5425C35.5193 15.8079 36.0657 15.9483 36.6222 15.9496Z" fill="#0F9D58"/>
</svg>
